<svg width="160" height="160" viewBox="0 0 160 160" fill="none" xmlns="http://www.w3.org/2000/svg">
<ellipse cx="80" cy="79.5" rx="80" ry="79.5" fill="white"/>
<path d="M127.384 78.3334C127.363 72.7033 126.598 67.1003 125.11 61.6677C134.114 59.2557 138.909 56.9123 139.345 56.6817C142.026 63.5932 143.457 70.9209 143.573 78.3272L127.384 78.3334ZM114.526 26.4198C114.774 26.5818 115.015 26.7532 115.263 26.9184C115.834 27.2955 116.405 27.6725 116.963 28.0683C117.258 28.2771 117.543 28.5015 117.835 28.7165C118.33 29.0811 118.829 29.4426 119.312 29.8196C119.625 30.0658 119.939 30.3245 120.237 30.5769C120.685 30.9384 121.137 31.2998 121.573 31.6769C121.887 31.9511 122.2 32.2378 122.514 32.5183C122.925 32.8891 123.342 33.2537 123.743 33.6339C124.057 33.9455 124.37 34.2572 124.684 34.5501C125.07 34.9272 125.455 35.3042 125.832 35.6906C126.145 36.0023 126.443 36.3482 126.747 36.6754C127.108 37.0649 127.472 37.4513 127.823 37.8502C128.137 38.1899 128.413 38.542 128.704 38.8879C128.996 39.2338 129.247 39.5299 129.513 39.8602C125.553 41.5724 121.494 43.051 117.358 44.2884C113.561 38.6829 109.084 33.5638 104.027 29.0468C106.861 27.907 109.607 26.5623 112.243 25.0237C113.027 25.4756 113.789 25.9399 114.539 26.4198H114.526ZM124.828 60.7422C123.38 55.7096 121.313 50.874 118.672 46.3451C118.443 45.9524 118.17 45.538 117.913 45.1329C122.081 43.8739 126.171 42.3702 130.16 40.6299C133.795 45.2493 136.766 50.3485 138.988 55.7811C138.977 55.7825 138.967 55.7825 138.956 55.7811C138.89 55.8372 134.13 58.2741 124.841 60.7422H124.828ZM20.2306 57.7537C21.645 58.3925 26.923 60.6113 36.1211 62.7241C34.7388 67.8169 33.993 73.0594 33.9008 78.3334H16.4109C16.5237 71.3091 17.819 64.353 20.2432 57.7537H20.2306ZM20.5662 56.85C22.8256 51.0154 25.9468 45.5477 29.827 40.6268C34.317 42.5928 38.9342 44.2585 43.6477 45.6128C43.4031 45.9961 43.1397 46.3887 42.917 46.7596C40.0969 51.475 37.9022 56.5331 36.3877 61.8079C27.0579 59.6546 21.8144 57.414 20.5787 56.85H20.5662ZM30.4574 39.8602C30.7208 39.5486 30.9874 39.2213 31.2539 38.9035C31.5205 38.5856 31.8467 38.193 32.1509 37.8502C32.499 37.4513 32.8627 37.0649 33.2234 36.6785C33.537 36.3482 33.8287 36.0147 34.1391 35.6938C34.5155 35.3042 34.9043 34.9272 35.2901 34.5501C35.6037 34.2385 35.9173 33.9268 36.2309 33.637C36.6354 33.2569 37.0494 32.8891 37.4634 32.5214C37.777 32.2378 38.0906 31.9511 38.4042 31.6769C38.837 31.3061 39.2792 30.9508 39.7213 30.5925C40.035 30.3369 40.3486 30.072 40.6622 29.8196C41.1294 29.455 41.603 29.106 42.0891 28.7508C42.4027 28.5233 42.6975 28.2896 43.0111 28.0683C43.5411 27.6881 44.0868 27.3297 44.6324 26.9683C44.9053 26.7875 45.1687 26.5974 45.4447 26.4198C46.1911 25.9368 46.9531 25.4849 47.7246 25.0237C50.8818 26.8648 54.1946 28.4288 57.6252 29.6981C52.6263 34.0203 47.5898 39.7013 44.1934 44.7589C39.5145 43.4306 34.9299 41.7941 30.4699 39.8602H30.4574ZM16.3921 79.2963H33.8945C33.8945 79.3649 33.8945 79.4334 33.8945 79.502C33.8962 85.0366 34.6161 90.548 36.0365 95.8997C26.7662 98.1496 21.6983 100.515 20.2526 101.25C17.6863 94.2834 16.3784 86.9209 16.3889 79.502C16.3858 79.4334 16.3921 79.3649 16.3921 79.2963ZM44.9868 132.273C44.7297 132.104 44.4788 131.92 44.2248 131.749C43.6665 131.372 43.1083 130.998 42.5658 130.605C42.2522 130.384 41.9699 130.15 41.6689 129.926C41.189 129.565 40.7029 129.206 40.2325 128.832C39.9189 128.577 39.6053 128.309 39.2917 128.05C38.8558 127.689 38.4136 127.33 37.9902 126.959C37.6766 126.676 37.363 126.383 37.0494 126.093C36.6449 125.725 36.2372 125.364 35.8452 124.987C35.5315 124.675 35.2179 124.363 34.9043 124.052C34.528 123.678 34.1517 123.304 33.7848 122.921C33.4711 122.59 33.1575 122.251 32.8659 121.914C32.5146 121.528 32.1603 121.148 31.8184 120.752C31.4766 120.356 31.2226 120.041 30.9278 119.686C30.633 119.331 30.4009 119.063 30.1438 118.726C34.6146 116.758 39.2142 115.092 43.9111 113.74C47.6149 119.3 53.103 124.981 57.437 128.798C53.9027 130.12 50.4957 131.757 47.2573 133.687C46.489 133.239 45.7332 132.771 44.9743 132.282L44.9868 132.273ZM36.2905 96.8283C37.7539 102.05 39.8828 107.064 42.6254 111.749C42.8512 112.132 43.1177 112.525 43.3655 112.914C38.642 114.283 34.0172 115.967 29.5228 117.956C25.7939 113.147 22.7835 107.828 20.585 102.163C21.7924 101.537 26.8101 99.125 36.2905 96.8283ZM67.0742 141.409C66.2275 141.235 65.387 141.042 64.5497 140.836C64.2611 140.764 63.9758 140.68 63.6872 140.602C63.1416 140.459 62.5959 140.319 62.0565 140.163C61.7147 140.063 61.3791 139.948 61.0373 139.851C60.5543 139.702 60.0714 139.54 59.5915 139.393C59.2372 139.272 58.8828 139.141 58.5284 139.013C58.0737 138.851 57.6189 138.701 57.1673 138.521C56.8036 138.38 56.4429 138.231 56.0823 138.084C55.6463 137.907 55.2073 137.735 54.7745 137.548C54.4107 137.389 54.0501 137.237 53.6863 137.059C53.2629 136.869 52.8427 136.679 52.4319 136.479C52.0681 136.305 51.7074 136.121 51.3468 135.94C50.936 135.735 50.5251 135.529 50.1174 135.317C49.7599 135.127 49.4056 134.931 49.0512 134.731C48.7721 134.579 48.493 134.42 48.217 134.261C53.0728 131.427 58.2928 129.26 63.7343 127.819C63.7768 127.819 63.8191 127.813 63.8597 127.801C66.7292 127.05 72.2738 126.227 75.2939 125.881C75.3573 125.873 75.4183 125.852 75.4736 125.82C75.5288 125.788 75.577 125.745 75.6156 125.694C75.6541 125.644 75.682 125.586 75.6979 125.524C75.7137 125.463 75.7171 125.399 75.7078 125.336C75.6921 125.209 75.6267 125.093 75.5257 125.014C75.4247 124.934 75.2964 124.898 75.1684 124.912C72.1202 125.261 66.516 126.093 63.7123 126.841C63.6709 126.841 63.6296 126.847 63.59 126.86C61.8464 127.315 60.1403 127.854 58.4406 128.452C58.4309 128.435 58.4193 128.42 58.4061 128.405C54.3292 124.853 48.6404 119.057 44.8582 113.469C46.7807 112.93 48.725 112.425 50.7039 111.976C50.8159 111.936 50.9093 111.857 50.9663 111.753C51.0234 111.65 51.0402 111.529 51.0135 111.413C50.9868 111.298 50.9186 111.197 50.8216 111.128C50.7247 111.06 50.6058 111.029 50.4875 111.042C48.3926 111.518 46.3353 112.057 44.3032 112.634C44.0084 112.176 43.723 111.721 43.4564 111.269C40.7635 106.669 38.6696 101.747 37.225 96.6227C41.0197 95.7314 45.4855 94.8713 50.6725 94.1483C50.7998 94.1298 50.9147 94.0622 50.9921 93.9601C51.0696 93.858 51.1035 93.7297 51.0865 93.603C51.0656 93.4776 50.997 93.3649 50.8948 93.2883C50.7927 93.2118 50.6648 93.1772 50.5377 93.1917C45.3098 93.924 40.8158 94.7934 36.9679 95.6847C35.5674 90.4062 34.858 84.9702 34.8573 79.5113C34.8573 79.4428 34.8573 79.3742 34.8573 79.3057H51.0394V78.3427H34.8824C34.9758 73.1413 35.7131 67.971 37.0776 62.9485C40.7061 63.7556 44.8959 64.5378 49.6815 65.2015H49.7505C49.8673 65.2012 49.98 65.1591 50.0681 65.083C50.1562 65.0069 50.2138 64.9019 50.2303 64.7871C50.2396 64.7244 50.2362 64.6605 50.2203 64.5991C50.2045 64.5377 50.1764 64.4801 50.1379 64.4296C50.0993 64.3791 50.0511 64.3368 49.9958 64.3051C49.9406 64.2733 49.8796 64.2529 49.8164 64.2448C45.0809 63.5873 40.935 62.8145 37.3411 62.0167C38.8338 56.8411 40.9903 51.8777 43.7575 47.2488C44.0209 46.8094 44.3251 46.3544 44.6199 45.8995C46.6489 46.4697 48.6968 47.0026 50.7917 47.4732C58.3356 49.1636 66.0157 50.1846 73.7415 50.524C73.8056 50.5287 73.87 50.5203 73.9307 50.4993C73.9913 50.4783 74.0471 50.4452 74.0944 50.4019C74.1417 50.3587 74.1796 50.3063 74.2057 50.248C74.2319 50.1897 74.2457 50.1266 74.2464 50.0628C74.2494 49.9997 74.2398 49.9367 74.2182 49.8774C74.1966 49.8181 74.1635 49.7635 74.1206 49.7169C74.0778 49.6703 74.0262 49.6326 73.9686 49.6058C73.9111 49.5791 73.8489 49.5639 73.7854 49.5611C66.1168 49.2238 58.4934 48.2112 51.0049 46.5352C49.0292 46.0896 47.0849 45.6003 45.1624 45.055C48.9793 39.5538 53.4796 34.5532 58.5566 30.1718C58.5912 30.1388 58.6207 30.101 58.6444 30.0596C60.4351 30.6828 62.2541 31.2438 64.1012 31.7081C67.8645 32.671 74.9865 33.3472 78.5961 33.5965H78.6306C78.7533 33.5915 78.8695 33.5406 78.9559 33.4539C79.0423 33.3673 79.0925 33.2514 79.0965 33.1295C79.1004 33.0076 79.0578 32.8888 78.9773 32.7968C78.8967 32.7048 78.7841 32.6465 78.662 32.6336C75.0869 32.3874 68.0464 31.7205 64.3395 30.7639C58.8615 29.382 53.5988 27.2642 48.6968 24.469C48.9665 24.3163 49.2331 24.1574 49.5028 24.0203C49.8477 23.8364 50.1896 23.6463 50.5345 23.4687C50.936 23.2599 51.3436 23.0574 51.7513 22.8455C52.0963 22.6741 52.4444 22.5027 52.7925 22.3375C53.2096 22.1412 53.6298 21.9542 54.0469 21.7704C54.395 21.6145 54.74 21.4587 55.0881 21.3092C55.5178 21.1284 55.9568 20.957 56.3927 20.7825C56.7346 20.6454 57.0733 20.5052 57.4182 20.3774C57.873 20.206 58.3277 20.0471 58.7856 19.8881C59.118 19.7697 59.4504 19.6451 59.786 19.5329C60.2658 19.374 60.7519 19.2213 61.238 19.081C61.5516 18.9813 61.8652 18.8785 62.1788 18.785C62.7213 18.6292 63.267 18.4734 63.8127 18.3456C64.0793 18.277 64.3427 18.1991 64.6092 18.1337C65.4246 17.9311 66.2463 17.7473 67.0711 17.5759C75.5951 15.8495 84.382 15.8495 92.9061 17.5759C93.7309 17.7442 94.5525 17.9311 95.3647 18.1337C95.6282 18.1991 95.8885 18.2739 96.1488 18.3425C96.7007 18.4858 97.2495 18.6261 97.7952 18.785C98.1088 18.8754 98.4224 18.9782 98.736 19.0748C99.2253 19.2244 99.7145 19.3708 100.197 19.5329C100.53 19.6451 100.856 19.7635 101.185 19.8819C101.646 20.044 102.107 20.1935 102.565 20.3743C102.904 20.502 103.239 20.6423 103.575 20.7763C104.017 20.9508 104.459 21.1253 104.895 21.3092C105.237 21.4556 105.579 21.6208 105.918 21.7641C106.344 21.9511 106.768 22.1381 107.188 22.3375C107.533 22.4996 107.875 22.671 108.216 22.8392C108.627 23.0418 109.035 23.2443 109.443 23.4625C109.788 23.6432 110.129 23.8302 110.471 24.0172C110.741 24.1636 111.007 24.3101 111.274 24.4628C106.377 27.2621 101.117 29.3802 95.6407 30.7576C92.5046 31.5523 88.1643 32.1163 82.6981 32.4373C82.5697 32.4453 82.4497 32.5036 82.3645 32.5994C82.2792 32.6952 82.2357 32.8207 82.2434 32.9483C82.2448 33.0124 82.2595 33.0755 82.2867 33.1336C82.3138 33.1917 82.3527 33.2437 82.4011 33.2861C82.4494 33.3285 82.506 33.3606 82.5674 33.3802C82.6288 33.3999 82.6936 33.4067 82.7577 33.4002C88.2835 33.0886 92.6991 32.4996 95.8822 31.6894C98.3096 31.0741 100.698 30.3166 103.036 29.4208C103.036 29.4208 103.054 29.4519 103.067 29.4644L104.764 31.1035C104.833 31.17 104.92 31.2144 105.014 31.2313C109.273 35.2604 113.085 39.7306 116.386 44.5657C113.955 45.2793 111.494 45.9493 108.975 46.5165C101.34 48.2311 93.5643 49.2543 85.7433 49.5735C85.6143 49.576 85.4917 49.6293 85.4023 49.7216C85.3129 49.814 85.2641 49.9378 85.2666 50.0659C85.2691 50.194 85.3227 50.3159 85.4156 50.4047C85.5085 50.4935 85.6332 50.542 85.7621 50.5396H85.784C93.6628 50.2208 101.496 49.1934 109.189 47.4701C111.82 46.878 114.391 46.1768 116.928 45.4227C117.242 45.8995 117.537 46.3763 117.807 46.8343C120.413 51.2866 122.457 56.0416 123.891 60.9915C120.193 61.9482 115.84 62.908 110.794 63.7275C110.667 63.7379 110.548 63.7982 110.465 63.8952C110.382 63.9922 110.342 64.118 110.352 64.2448C110.362 64.3717 110.423 64.4893 110.521 64.5717C110.618 64.6541 110.745 64.6946 110.873 64.6842C110.899 64.6872 110.925 64.6872 110.951 64.6842C116.035 63.8584 120.425 62.8924 124.157 61.9232C125.626 67.2751 126.381 72.7955 126.402 78.3427H109.264V79.3057H126.399C126.338 84.8146 125.556 90.2922 124.072 95.6005C120.25 94.7654 115.658 93.9614 110.202 93.2914C110.074 93.2796 109.947 93.3166 109.846 93.3947C109.745 93.4729 109.678 93.5864 109.659 93.7121C109.644 93.8389 109.68 93.9665 109.759 94.0669C109.839 94.1673 109.955 94.2325 110.082 94.2481C115.464 94.9087 120.008 95.7096 123.796 96.5354C122.314 101.554 120.207 106.37 117.524 110.87C117.145 111.493 116.718 112.157 116.27 112.821C114.046 112.179 111.798 111.574 109.505 111.054C109.387 111.042 109.269 111.074 109.173 111.143C109.077 111.212 109.01 111.313 108.983 111.428C108.957 111.543 108.974 111.663 109.031 111.766C109.088 111.87 109.181 111.949 109.292 111.989C111.459 112.481 113.585 113.045 115.69 113.647C111.926 118.966 106.263 124.89 101.938 128.605C100.125 127.95 98.2813 127.358 96.4059 126.875H96.362C92.4058 125.934 88.3942 125.24 84.3508 124.797C84.223 124.784 84.0954 124.823 83.9956 124.903C83.8958 124.984 83.8319 125.1 83.8177 125.227C83.8112 125.29 83.8173 125.353 83.8355 125.414C83.8538 125.474 83.8839 125.53 83.9241 125.579C83.9643 125.628 84.0138 125.669 84.0698 125.699C84.1258 125.729 84.1872 125.747 84.2505 125.753C87.4305 126.065 92.9688 126.981 96.1488 127.813C96.1632 127.816 96.1782 127.816 96.1927 127.813C101.656 129.245 106.898 131.41 111.773 134.248C111.497 134.41 111.218 134.56 110.939 134.719C110.584 134.918 110.23 135.115 109.869 135.305C109.508 135.495 109.051 135.728 108.64 135.928C108.279 136.109 107.922 136.292 107.558 136.467C107.141 136.666 106.717 136.857 106.303 137.047C105.943 137.212 105.582 137.377 105.218 137.536C104.782 137.723 104.343 137.897 103.904 138.075C103.544 138.218 103.186 138.368 102.825 138.508C102.371 138.68 101.91 138.842 101.452 139.004C101.101 139.128 100.753 139.262 100.398 139.381C99.9121 139.543 99.4197 139.692 98.9273 139.845C98.598 139.948 98.2688 140.057 97.9363 140.157C97.3844 140.319 96.8293 140.468 96.2773 140.605C95.9951 140.68 95.7191 140.761 95.4369 140.833C94.5995 141.039 93.7559 141.232 92.9092 141.406C84.385 143.13 75.5988 143.131 67.0742 141.409ZM128.19 120.742C127.836 121.148 127.472 121.543 127.111 121.942C126.798 122.254 126.522 122.597 126.217 122.918C125.844 123.31 125.459 123.69 125.073 124.074C124.759 124.385 124.468 124.697 124.154 125.009C123.756 125.392 123.342 125.763 122.931 126.137C122.617 126.42 122.304 126.707 121.99 126.984C121.56 127.361 121.115 127.723 120.673 128.087C120.359 128.343 120.046 128.608 119.732 128.86C119.259 129.234 118.772 129.596 118.286 129.957C117.973 130.182 117.7 130.412 117.399 130.63C116.856 131.023 116.301 131.397 115.746 131.774C115.489 131.945 115.238 132.129 114.978 132.301C114.235 132.787 113.479 133.254 112.714 133.712C109.601 131.857 106.333 130.274 102.945 128.982C107.335 125.155 112.924 119.237 116.634 113.946C121.141 115.258 125.56 116.855 129.862 118.729C129.592 119.066 129.319 119.393 129.046 119.723C128.773 120.054 128.482 120.406 128.19 120.742ZM124.74 96.7473C134.171 98.8913 138.633 101.163 139.568 101.677C137.362 107.519 134.298 113.004 130.473 117.953C126.167 116.058 121.744 114.438 117.229 113.104C117.631 112.509 118.01 111.92 118.352 111.35C121.091 106.765 123.242 101.857 124.753 96.7411L124.74 96.7473ZM139.906 100.761C138.652 100.079 134.189 97.8879 125.016 95.8093C126.516 90.4283 127.306 84.8764 127.365 79.2932H143.582C143.582 79.3618 143.582 79.4303 143.582 79.4989C143.598 86.7406 142.359 93.9309 139.919 100.755L139.906 100.761Z" fill="#3CB4E5"/>
<path d="M114.082 52.138L115.491 45.1856L108.704 47.5104C107.948 47.769 90.2452 54.1137 90.2452 78.6728V82.724H94.3597C97.778 82.724 98.8412 89.748 89.1319 90.5644C88.7399 89.6296 88.3353 88.7882 87.9308 88.0216C83.1827 78.9845 82.8346 71.5055 86.5885 58.3518C90.8567 43.3938 81.8624 31.3962 81.4798 30.9008L80.009 28.9625V28.9188V28.9406L79.9933 28.9188V28.9625L78.5225 30.9008C78.1399 31.3962 69.1457 43.3658 73.4139 58.3518C77.1771 71.5024 76.8196 78.9969 72.0716 88.0216C71.6671 88.7882 71.2625 89.6389 70.8705 90.5644C59.7531 89.4675 62.2275 82.724 65.6427 82.724H69.7509V78.6728C69.7509 54.1199 52.0478 47.7752 51.2951 47.5104L44.4961 45.1856L45.9167 52.138C45.9826 52.4714 52.6624 86.0521 46.4405 107.118L44.5839 113.407L51.1132 112.254C56.6786 111.277 62.2931 110.601 67.932 110.228C68.7505 117.305 71.849 124.606 79.0745 130.552L79.9902 131.303V131.328H80.0059V131.303L80.9216 130.552C88.1346 124.606 91.2456 117.305 92.0641 110.228C97.704 110.602 103.32 111.278 108.886 112.254L115.412 113.407L113.556 107.118C107.337 86.0521 114.017 52.4714 114.082 52.138ZM65.627 78.6635C60.9009 78.6635 58.9346 82.0914 58.2509 84.628H53.1924C53.1924 67.364 49.9435 51.3402 49.9435 51.3402C49.9435 51.3402 65.627 56.7158 65.627 78.6635ZM67.6905 106.168C61.886 106.55 56.107 107.248 50.3794 108.259C52.1324 102.313 52.9165 95.4819 53.1266 88.6885H58.4391C59.2984 90.4959 61.4278 92.5526 66.0315 93.5592C67.2337 93.8189 68.3836 94.0983 69.4812 94.3974C68.3083 98.2127 67.705 102.178 67.6905 106.168ZM79.9933 36.2981C82.151 40.3835 85.1898 48.2957 82.6371 57.2424C81.069 62.7426 80.1909 67.3858 79.9933 71.6052C79.7989 67.3858 78.9208 62.7426 77.3496 57.2424C74.8 48.3019 77.8357 40.3835 79.9933 36.2981ZM75.7095 89.8976C78.3093 84.9583 79.7236 80.3712 80.0028 75.2824C80.285 80.3712 81.6962 84.9583 84.296 89.8976C84.6097 90.499 84.9233 91.1659 85.2369 91.8889C78.9898 94.198 79.9933 103.656 79.9933 103.656C79.9933 103.656 80.7805 93.9954 74.753 91.8889C75.0823 91.1659 75.3959 90.499 75.7095 89.8976ZM87.9402 110.004C87.2344 116.059 84.4238 121.68 79.9933 125.896C75.5593 121.681 72.7444 116.06 72.034 110.004C71.8672 108.66 71.7866 107.307 71.7925 105.952C71.8295 102.486 72.3574 99.0421 73.3605 95.7218C78.0396 98.5265 80.0028 119.116 80.0028 119.116C80.0028 119.116 81.4328 99.4489 86.6167 95.7218C87.6199 99.0421 88.1478 102.486 88.1848 105.952C88.1897 107.307 88.108 108.66 87.9402 110.004ZM92.2868 106.18C92.2682 102.19 91.6607 98.2245 90.4835 94.4099C91.5874 94.0983 92.7446 93.8303 93.9332 93.5716C98.537 92.5651 100.666 90.5084 101.523 88.7009H106.835C107.048 95.5068 107.829 102.325 109.582 108.271C103.864 107.257 98.0946 106.555 92.2993 106.168L92.2868 106.18ZM106.785 84.6405H101.739C101.058 82.1132 99.0921 78.676 94.3629 78.676C94.3629 56.7282 110.043 51.3527 110.043 51.3527C110.043 51.3527 106.801 67.364 106.797 84.628L106.785 84.6405Z" fill="#FFCD00"/>
<path d="M86.1769 149.016C85.7158 148.74 85.1733 148.63 84.6403 148.705L82.8687 148.82L83.0788 152.058L84.8536 151.942C85.3928 151.945 85.9162 151.761 86.3336 151.422C86.498 151.262 86.6226 151.066 86.6977 150.849C86.7728 150.633 86.7963 150.402 86.7664 150.176C86.7654 149.95 86.7116 149.728 86.6093 149.527C86.507 149.326 86.3589 149.151 86.1769 149.016Z" fill="#1A428A"/>
<path d="M15.2366 112.185C15.4456 112.276 15.6727 112.318 15.9005 112.307C16.1283 112.297 16.3507 112.235 16.5505 112.126C16.7617 112.041 16.9501 111.909 17.1004 111.739C17.2507 111.569 17.3588 111.366 17.416 111.147C17.5068 110.621 17.4115 110.079 17.1463 109.614L16.378 108.019L13.4336 109.421L14.1987 111.013C14.3982 111.511 14.7649 111.925 15.2366 112.185Z" fill="#1A428A"/>
<path d="M9.7889 56.0923C9.63473 56.0345 9.46887 56.0142 9.3052 56.0332C9.14154 56.0522 8.98483 56.1099 8.84818 56.2014C8.53573 56.4494 8.31512 56.7936 8.22104 57.1799L7.61584 59.1119L9.83907 59.7975L10.4443 57.8654C10.5861 57.4978 10.6048 57.0946 10.4976 56.7155C10.439 56.5625 10.3439 56.4258 10.2204 56.3172C10.097 56.2087 9.94894 56.1315 9.7889 56.0923Z" fill="#1A428A"/>
<path d="M103.842 146.101C103.48 145.77 103.027 145.553 102.541 145.478C101.998 145.403 101.445 145.455 100.926 145.631L99.0443 146.235L100.756 151.552L102.638 150.95C103.164 150.794 103.645 150.516 104.043 150.14C104.397 149.804 104.641 149.369 104.745 148.894C104.837 148.388 104.802 147.869 104.645 147.38C104.487 146.891 104.212 146.448 103.842 146.089V146.101Z" fill="#1A428A"/>
<path d="M13.2152 56.7316C12.4563 56.499 11.917 56.8926 11.5971 57.9127L10.901 60.1439L13.2026 60.8544L13.8988 58.6325C14.2186 57.6042 13.9907 56.9705 13.2152 56.7316Z" fill="#1A428A"/>
<path d="M137.131 31.8231L133.406 32.948L135.388 35.2883L137.131 31.8231Z" fill="#1A428A"/>
<path d="M59.3214 12.3706C59.6644 12.7227 60.0984 12.9739 60.5757 13.0967C61.0758 13.2218 61.6003 13.2143 62.0965 13.0749C62.5968 12.9529 63.0556 12.7013 63.4261 12.3457C63.7826 12.0062 64.0368 11.5745 64.1598 11.0992C64.279 10.5996 64.2721 10.0784 64.1397 9.582C64.0073 9.08563 63.7536 8.62947 63.401 8.25408C63.058 7.90204 62.624 7.6508 62.1467 7.52799C61.6461 7.41131 61.1242 7.41878 60.6272 7.54975C60.1301 7.68071 59.6731 7.93116 59.2963 8.27901C58.9398 8.61854 58.6857 9.05024 58.5626 9.52551C58.4434 10.0252 58.4503 10.5464 58.5827 11.0427C58.7151 11.5391 58.9689 11.9952 59.3214 12.3706Z" fill="#1A428A"/>
<path d="M76.3526 149.076C75.9169 148.804 75.4207 148.644 74.9078 148.608C74.3949 148.572 73.8809 148.662 73.4113 148.87C72.9649 149.075 72.5841 149.398 72.3106 149.805C72.035 150.239 71.8716 150.734 71.8349 151.246C71.7983 151.758 71.8895 152.272 72.1005 152.74C72.311 153.186 72.6421 153.565 73.0569 153.834C73.4927 154.105 73.9888 154.266 74.5018 154.302C75.0147 154.338 75.5286 154.248 75.9982 154.04C76.4444 153.836 76.8244 153.512 77.0958 153.105C77.3738 152.672 77.5386 152.176 77.5753 151.664C77.612 151.151 77.5194 150.637 77.3059 150.169C77.0965 149.724 76.7664 149.345 76.3526 149.076Z" fill="#1A428A"/>
<path d="M39.6891 140.752L40.4386 136.95L37.1523 139.022L39.6891 140.752Z" fill="#1A428A"/>
<path d="M130.495 28.4703C130.72 28.4673 130.943 28.4191 131.149 28.3285C131.355 28.2379 131.54 28.1069 131.694 27.9434C131.848 27.7798 131.967 27.587 132.043 27.3766C132.12 27.1662 132.154 26.9425 132.141 26.719C132.03 26.196 131.743 25.7265 131.326 25.3884L130.028 24.1824L127.805 26.5445L129.103 27.7505C129.471 28.1408 129.962 28.3947 130.495 28.4703Z" fill="#1A428A"/>
<path d="M149.719 69.3891C150.503 69.2519 150.798 68.6536 150.61 67.6003L150.193 65.313L147.812 65.7524L148.226 68.0397C148.418 69.0805 148.913 69.5324 149.719 69.3891Z" fill="#1A428A"/>
<path d="M142.774 113.051C142.584 112.928 142.367 112.85 142.141 112.823C141.915 112.797 141.687 112.822 141.472 112.899C140.985 113.123 140.591 113.509 140.356 113.989L139.469 115.523L142.291 117.14L143.175 115.607C143.477 115.163 143.612 114.628 143.558 114.095C143.516 113.873 143.423 113.664 143.288 113.483C143.152 113.302 142.976 113.154 142.774 113.051Z" fill="#1A428A"/>
<path d="M28.7444 33.2342C29.4636 32.4365 29.521 31.7686 28.9169 31.2305C28.3127 30.6924 27.6574 30.8264 26.9508 31.6325L25.3829 33.362L27.1766 34.9638L28.7444 33.2342Z" fill="#1A428A"/>
<path d="M159.997 79.3549L159.417 79.3705L159.997 79.2334L159.972 78.0461C159.646 60.0137 153.161 42.6271 141.58 28.7401C129.999 14.8531 114.011 5.29097 96.2404 1.6232C85.5179 -0.541068 74.4669 -0.541068 63.7444 1.6232C61.6464 2.05636 59.5358 2.57989 57.4722 3.18133C51.2611 4.99245 45.2943 7.54675 39.7032 10.7881C38.6182 11.4113 37.5425 12.0782 36.5044 12.7482C36.2379 12.9196 35.9776 13.1003 35.7141 13.2811L34.7953 13.9043C34.3311 14.216 33.8545 14.5276 33.4123 14.8392C33.1332 15.0386 32.8603 15.2443 32.5906 15.4625L31.6498 16.173C31.2421 16.4846 30.8376 16.7744 30.4361 17.086C30.1539 17.3073 29.8779 17.541 29.5988 17.7716L28.6392 18.56C28.2785 18.8529 27.9179 19.1459 27.5666 19.4513C27.253 19.7068 26.9802 19.9717 26.6917 20.2366L25.7853 21.0561C25.4717 21.3491 25.1268 21.642 24.8069 21.9474C24.487 22.2528 24.2048 22.5363 23.9068 22.8355L23.0319 23.7081C22.7402 23.9916 22.4485 24.2783 22.1663 24.5713C21.8841 24.8642 21.5391 25.2319 21.2506 25.5653L20.4634 26.4254C20.1874 26.7215 19.9115 27.0206 19.6449 27.326C19.3783 27.6314 19.0647 28.0085 18.7793 28.3513L18.0016 29.2861C17.7538 29.5791 17.5061 29.872 17.3399 30.0964L17.1956 30.2491C8.7491 40.8898 3.17919 53.4989 1.01452 66.8796C-1.15016 80.2603 0.162222 93.9687 4.8271 106.704C9.49198 119.439 17.3546 130.778 27.6687 139.646C37.9829 148.513 50.4063 154.614 63.7601 157.37C74.4798 159.552 85.5332 159.552 96.253 157.37C114.266 153.646 130.439 143.869 142.049 129.686C153.66 115.503 159.999 97.7781 160 79.4951L159.997 79.3549ZM155.105 66.6157C155.281 67.3486 155.227 68.1179 154.948 68.8188C154.821 69.0936 154.627 69.3322 154.383 69.5125C154.139 69.6928 153.853 69.809 153.552 69.8503C153.167 69.9284 152.768 69.8904 152.404 69.7413C152.046 69.5846 151.745 69.3225 151.542 68.9902C151.521 69.4646 151.346 69.9194 151.043 70.2866C150.66 70.6808 150.14 70.9148 149.59 70.9409C149.039 70.9669 148.499 70.7831 148.08 70.4268C147.595 69.9781 147.262 69.2614 147.082 68.2766L146.396 64.4779L154.455 63.0351L155.105 66.6157ZM154.38 80.6606L152.128 82.8918L149.88 80.6575L152.128 78.4231L154.38 80.6606ZM153.675 60.1432L145.781 62.3246L145.383 60.8911L153.276 58.7097L153.675 60.1432ZM150.306 50.2678L143.868 52.7452L145.361 56.572L151.799 54.0946L152.345 55.4938L145.906 57.9618L146.346 59.0899L143.463 60.1962L142.955 58.8967L144.636 58.2485L142.127 51.8073L149.767 48.8686L150.306 50.2678ZM144.63 46.1731L147.581 44.5308L148.324 45.849L141.177 49.8284L140.434 48.5072L143.498 46.8026L141.428 43.1316L138.364 44.8362L137.621 43.518L144.768 39.5386L145.511 40.8599L142.56 42.499L144.63 46.1731ZM144.63 35.8396C144.813 35.8787 144.975 35.9854 145.082 36.1381C145.189 36.2907 145.234 36.4781 145.207 36.6623C145.188 36.755 145.15 36.843 145.096 36.9211C145.042 36.9992 144.974 37.0659 144.894 37.1173C144.818 37.1713 144.733 37.2098 144.642 37.2307C144.552 37.2516 144.458 37.2543 144.367 37.2388C144.183 37.2003 144.022 37.0937 143.915 36.9408C143.809 36.7878 143.765 36.6001 143.793 36.4161C143.809 36.3254 143.843 36.239 143.895 36.1623C143.946 36.0856 144.013 36.0203 144.091 35.9705C144.167 35.9119 144.255 35.8697 144.349 35.8466C144.443 35.8236 144.541 35.8201 144.636 35.8365L144.63 35.8396ZM142.821 34.1101C142.896 34.0535 142.983 34.0129 143.075 33.9909C143.168 33.9689 143.263 33.966 143.357 33.9823C143.54 34.0201 143.701 34.1261 143.808 34.2785C143.915 34.431 143.959 34.6183 143.931 34.8019C143.909 34.9418 143.845 35.0719 143.748 35.1751C143.65 35.2783 143.524 35.3498 143.385 35.3802C143.245 35.4105 143.1 35.3983 142.968 35.3452C142.836 35.292 142.724 35.2004 142.645 35.0824C142.59 35.0078 142.551 34.923 142.53 34.833C142.509 34.743 142.507 34.6498 142.523 34.5589C142.54 34.468 142.574 34.3813 142.626 34.3042C142.677 34.227 142.743 34.161 142.821 34.1101ZM143.075 37.0799L136.332 41.7262L135.463 40.4797L142.193 35.8365L143.075 37.0799ZM137.837 30.2896L138.803 31.427L134.921 39.4794L133.895 38.2703L134.817 36.4348L132.18 33.3186L130.207 33.92L129.182 32.7202L137.837 30.2896ZM132.274 24.5027C132.748 24.9226 133.128 25.4377 133.387 26.0141C133.608 26.5021 133.677 27.0449 133.585 27.5722C133.464 28.1013 133.204 28.5889 132.831 28.9849C132.458 29.3809 131.985 29.6709 131.462 29.8252C130.942 29.9531 130.396 29.9227 129.894 29.738C129.296 29.5189 128.752 29.177 128.297 28.7346L126.949 27.4881L125.334 29.2051L124.224 28.1705L129.818 22.2278L132.274 24.5027ZM123.807 17.6251L121.774 20.3705L123.029 21.3054L126.961 19.9436L128.263 20.8785L123.659 22.4086L123.496 27.4974L122.122 26.4877L122.235 22.312L121.009 21.4145L118.964 24.1786L117.732 23.2998L122.583 16.7557L123.807 17.6251ZM111.576 18.2484C111.757 18.4528 111.968 18.6283 112.203 18.7688C112.426 18.887 112.676 18.9436 112.928 18.9326C113.18 18.9216 113.425 18.8435 113.636 18.7065L113.846 18.5974L114.016 11.7167L115.43 12.5145L115.17 17.8589L119.708 14.9202L121.009 15.6557L114.649 19.632C114.165 19.9573 113.609 20.1605 113.028 20.2241C112.526 20.2675 112.023 20.1588 111.585 19.9125C111.226 19.7059 110.912 19.4292 110.663 19.0991L111.576 18.2484ZM100.966 10.9314C101.214 10.2162 101.654 9.58237 102.24 9.09908C102.811 8.63334 103.5 8.33162 104.231 8.22653C105.004 8.11458 105.793 8.19928 106.524 8.47271C107.117 8.6746 107.664 8.99247 108.132 9.40759C108.566 9.80084 108.9 10.2897 109.108 10.8348L107.869 11.3677C107.715 10.9878 107.481 10.6451 107.182 10.3628C106.884 10.0806 106.527 9.86535 106.138 9.73168C105.646 9.54487 105.113 9.48797 104.592 9.56652C104.102 9.64259 103.643 9.85183 103.265 10.1711C102.873 10.5106 102.577 10.947 102.409 11.4363C102.223 11.9185 102.17 12.4413 102.255 12.9508C102.338 13.4365 102.555 13.8898 102.883 14.2596C103.233 14.6507 103.679 14.9449 104.178 15.1134C104.564 15.2588 104.978 15.3188 105.39 15.2892C105.802 15.2596 106.203 15.1412 106.564 14.942L107.17 16.1511C106.657 16.4365 106.085 16.5987 105.498 16.6248C104.867 16.6519 104.236 16.5522 103.645 16.3319C102.906 16.0792 102.245 15.6437 101.722 15.0667C101.228 14.5224 100.894 13.8525 100.76 13.1315C100.626 12.3918 100.698 11.6299 100.97 10.9283L100.966 10.9314ZM94.4874 5.19131L100.314 6.53129L100.026 7.77779L95.6822 6.77747L95.2024 8.83731L99.0535 9.72545L98.7712 10.9377L94.9201 10.0495L94.409 12.2309L98.9155 13.2593L98.627 14.5058L92.6433 13.1159L94.4874 5.19131ZM85.3927 3.99155L88.7577 4.36238C89.3913 4.41766 90.0058 4.60564 90.561 4.91396C91.0303 5.17137 91.4107 5.56342 91.6523 6.03893C91.875 6.53458 91.9607 7.08026 91.9007 7.61977C91.8406 8.15929 91.6369 8.67314 91.3105 9.10843C90.9691 9.52221 90.5101 9.82411 89.9934 9.97474C89.3833 10.1538 88.7421 10.2026 88.1117 10.1181L86.274 9.91242L86.0105 12.2496L84.499 12.0813L85.3927 3.99155ZM77.816 3.82015L81.9681 3.88871L81.9964 2.21529L83.4013 2.2371L83.3512 5.18819L79.2931 5.12586L79.1802 11.9816L77.6811 11.9567L77.816 3.82015ZM68.8092 4.62103L69.2043 7.95853L73.4098 7.47863L73.0146 4.14113L74.5262 3.9635L75.4671 12.0471L73.9555 12.2247L73.5478 8.75941L69.3392 9.25178L69.75 12.7139L68.2384 12.8916L67.2819 4.808L68.8092 4.62103ZM57.1022 9.21438C57.3018 8.50451 57.6959 7.86368 58.2406 7.36333C58.8254 6.84207 59.5262 6.46605 60.2856 6.26616C61.0451 6.06627 61.8413 6.0482 62.6091 6.21343C63.329 6.38183 63.9892 6.74162 64.519 7.25426C65.0518 7.79213 65.4344 8.45864 65.629 9.18814C65.8237 9.91763 65.8238 10.6849 65.6292 11.4145C65.4256 12.1224 65.0308 12.7615 64.4876 13.2624C63.9031 13.784 63.2021 14.16 62.4426 14.3594C61.683 14.5588 60.8866 14.5758 60.1191 14.4092C59.3966 14.2418 58.7346 13.8794 58.2061 13.3621C57.6744 12.8262 57.2928 12.1616 57.0992 11.4341C56.9056 10.7066 56.9066 9.94139 57.1022 9.21438ZM49.5348 10.0807L50.8332 13.2343L52.2852 12.6423L53.1633 8.60671L54.656 7.98346L53.571 12.6859L57.858 15.4905L56.2649 16.1387L52.7399 13.8669L51.3318 14.4403L52.6396 17.6127L51.2471 18.1767L48.1424 10.6447L49.5348 10.0807ZM36.8212 14.3936C36.8846 14.5006 36.9708 14.5926 37.0737 14.6631C37.1767 14.7336 37.2938 14.7809 37.417 14.8018C37.6966 14.8238 37.9749 14.7453 38.2011 14.5806C38.4496 14.4421 38.6415 14.2216 38.7436 13.9573C38.7802 13.8374 38.7897 13.711 38.7712 13.587C38.7528 13.4631 38.7069 13.3448 38.637 13.2406L39.5245 12.6765C39.6602 12.8715 39.7495 13.0946 39.7853 13.329C39.8212 13.5633 39.8028 13.8028 39.7315 14.029C39.4817 14.5252 39.1014 14.9451 38.6311 15.2441C38.1607 15.5431 37.6176 15.7101 37.0595 15.7273C36.8217 15.6949 36.5945 15.6087 36.3955 15.4752C36.1965 15.3418 36.031 15.1647 35.9117 14.9576L36.8212 14.3936ZM37.1191 16.8492L40.2552 21.723L40.8385 14.5027L42.0333 13.7454L46.4238 20.6012L45.1694 21.402L42.0522 16.5376L41.4594 23.7517L40.2677 24.5089L35.8772 17.6532L37.1191 16.8492ZM28.7332 23.3933L32.4965 27.7903L32.07 20.5669L33.1457 19.6538L38.477 25.8427L37.3355 26.8087L33.5722 22.4242L33.9956 29.6476L32.9042 30.5389L27.5729 24.3469L28.7332 23.3933ZM23.4019 28.7065C23.874 28.1161 24.5197 27.6869 25.2491 27.4787C25.5447 27.4092 25.8532 27.415 26.146 27.4956C26.4388 27.5763 26.7063 27.7291 26.9237 27.9399C27.225 28.1927 27.4434 28.529 27.5509 28.906C27.6444 29.2831 27.6214 29.6794 27.4851 30.0434C27.8743 29.7701 28.3415 29.6281 28.8179 29.6383C29.3662 29.6979 29.871 29.9627 30.2298 30.3789C30.5886 30.7951 30.7745 31.3314 30.7497 31.8788C30.6902 32.5364 30.3264 33.2344 29.6521 33.9792L27.0586 36.8524L20.962 31.4114L23.4019 28.7065ZM15.8252 39.1989C15.9218 38.4244 16.2025 37.6838 16.6443 37.0384C17.086 36.393 17.6759 35.8614 18.3654 35.4875C19.0194 35.1434 19.7561 34.9849 20.4948 35.0294C21.2512 35.0905 21.9787 35.3454 22.6063 35.7693C23.234 36.1931 23.7404 36.7713 24.0762 37.4476C24.3894 38.1144 24.512 38.8539 24.4305 39.5853C24.3338 40.3594 24.0533 41.0996 23.6122 41.7449C23.1711 42.3902 22.582 42.9221 21.8935 43.2968C21.2365 43.6418 20.4962 43.7993 19.7547 43.7518C19 43.693 18.2738 43.4397 17.6479 43.0166C17.022 42.5936 16.518 42.0156 16.1858 41.3398C15.8676 40.6734 15.7427 39.932 15.8252 39.1989ZM13.539 42.069L14.6836 42.6517L13.4292 45.0512L19.5728 48.1706L18.8828 49.5043L12.7549 46.3725L11.5193 48.7627L10.3747 48.1768L13.539 42.069ZM9.66277 49.9687L17.227 53.0849L16.6531 54.4623L9.08886 51.346L9.66277 49.9687ZM7.1539 56.7185C7.33834 55.9909 7.74474 55.3378 8.31739 54.8487C8.55682 54.6629 8.83983 54.5405 9.13988 54.4931C9.43993 54.4457 9.74718 54.4747 10.0328 54.5776C10.4092 54.6786 10.7448 54.8932 10.9931 55.1919C11.2414 55.4905 11.3902 55.8584 11.419 56.2448C11.6564 55.8342 12.0219 55.5115 12.4601 55.3255C12.9845 55.153 13.5553 55.186 14.056 55.4177C14.5567 55.6493 14.9494 56.0622 15.154 56.572C15.3777 57.1953 15.3401 57.9837 15.0411 58.9372L13.8871 62.6237L6.05628 60.1931L7.1539 56.7185ZM4.77362 65.6309C4.87068 65.0096 5.09481 64.4146 5.4322 63.8827C5.74941 63.391 6.17928 62.981 6.68663 62.6861L7.42361 63.8079C7.06924 64.0233 6.76622 64.3127 6.53554 64.656C6.30487 64.9993 6.15204 65.3883 6.08764 65.7961C5.98596 66.309 6.01945 66.8393 6.18486 67.3355C6.3473 67.8052 6.63967 68.22 7.02846 68.5322C7.43543 68.8526 7.91611 69.0676 8.42735 69.1579C8.93859 69.2482 9.46439 69.2109 9.95756 69.0495C10.4252 68.8851 10.837 68.5935 11.1461 68.2081C11.474 67.799 11.69 67.3128 11.7733 66.7964C11.8523 66.3932 11.8419 65.9777 11.7427 65.5789C11.6436 65.1801 11.4582 64.8076 11.1994 64.4873L12.2939 63.6864C12.6649 64.1399 12.9238 64.6736 13.0497 65.2445C13.1837 65.8599 13.1912 66.4959 13.0717 67.1143C12.9441 67.8819 12.6201 68.6041 12.1309 69.2115C11.6764 69.7886 11.0695 70.2288 10.3778 70.4829C9.6621 70.7334 8.8933 70.7953 8.14636 70.6626C7.39942 70.5299 6.69985 70.2071 6.11586 69.7257C5.55572 69.2497 5.13804 68.6298 4.90847 67.9338C4.66316 67.1911 4.61349 66.3982 4.76421 65.6309H4.77362ZM10.5597 79.8878L8.31112 82.1252L6.06255 79.8878L8.31112 77.6534L10.5597 79.8878ZM4.57605 93.5993C4.36698 92.4961 4.5196 91.5779 5.03392 90.8445C5.54823 90.1111 6.38452 89.6385 7.54278 89.4266L12.087 88.5946L12.3598 90.0592L7.87207 90.8788C6.29148 91.1696 5.62768 91.9933 5.88066 93.35C6.13363 94.7066 7.04832 95.2363 8.62472 94.9392L13.1124 94.1166L13.3853 95.5812L8.83798 96.4132C7.67554 96.621 6.72322 96.4787 5.98101 95.9863C5.23881 95.4939 4.76735 94.6951 4.56664 93.5899L4.57605 93.5993ZM8.00064 105.818L10.3558 102.029L8.68431 101.215L6.6929 101.864L6.21935 100.427L14.0031 97.8903L14.4766 99.3269L10.4781 100.626L15.7405 103.147L16.2705 104.762L11.7326 102.649L8.55573 107.51L8.00064 105.818ZM11.8078 114.431L13.2504 111.901C13.1962 111.811 13.147 111.719 13.103 111.624L12.3033 109.966L10.1645 110.991L9.50596 109.626L16.8946 106.114L18.3497 109.134C18.6387 109.697 18.8043 110.316 18.8358 110.947C18.8619 111.48 18.7276 112.009 18.4501 112.465C18.1532 112.924 17.7281 113.287 17.227 113.509C16.7258 113.765 16.158 113.863 15.5994 113.789C15.0492 113.7 14.5401 113.444 14.1411 113.057L12.5291 115.899L11.8078 114.431ZM17.296 123.469L18.4406 121.761L16.2046 118.333L14.1756 118.729L13.3194 117.423L22.1977 116.052L23.013 117.298L18.1647 124.805L17.296 123.469ZM19.5696 126.429L25.9766 121.356L26.9175 122.537L20.5136 127.619L19.5696 126.429ZM26.8391 134.488L27.6513 127.426L23.6842 131.287L22.6273 130.212L28.4886 124.528L29.3636 125.416L28.5514 132.478L32.5185 128.629L33.5753 129.701L27.7266 135.388L26.8391 134.488ZM30.2637 137.529L35.5197 131.297L36.6863 132.269L31.4303 138.501L30.2637 137.529ZM40.3461 144.911L39.0321 144.017L39.4304 142.004L36.0528 139.701L34.3123 140.81L33.0234 139.919L40.6942 135.279L41.9298 136.124L40.3461 144.911ZM48.9547 149.321L47.8351 148.763L46.267 141.823L43.7958 146.775L42.4442 146.102L46.1134 138.825L47.233 139.383L48.801 146.32L51.2848 141.39L52.6333 142.063L48.9547 149.321ZM65.2372 154.397L63.6691 154.017L63.1423 147.71L59.6926 153.076L58.1245 152.693L57.4315 144.145L58.9682 144.516L59.4668 151.007L63.0011 145.497L64.3653 145.828L64.8922 152.372L68.414 146.825L69.8221 147.164L65.2372 154.397ZM79.1049 151.761C79.063 152.516 78.8124 153.245 78.3805 153.868C77.9578 154.471 77.3763 154.948 76.6995 155.245C75.9772 155.551 75.1919 155.682 74.4085 155.628C73.625 155.574 72.8657 155.336 72.193 154.933C71.5642 154.543 71.0563 153.988 70.7253 153.328C70.398 152.649 70.2548 151.897 70.3098 151.146C70.3648 150.395 70.6161 149.671 71.0389 149.047C71.4608 148.44 72.0438 147.961 72.723 147.663C73.4449 147.357 74.2295 147.226 75.0125 147.28C75.7954 147.334 76.5541 147.572 77.2264 147.975C77.8537 148.365 78.3596 148.92 78.6878 149.58C79.0267 150.255 79.171 151.009 79.1049 151.761ZM66.7833 142.848C55.9094 140.607 45.7932 135.64 37.3963 128.418C28.9994 121.196 22.6009 111.96 18.8091 101.588C15.0173 91.2166 13.9583 80.0533 15.7326 69.16C17.507 58.2667 22.0557 48.0054 28.9465 39.3516C29.1378 39.1117 29.3354 38.8779 29.5329 38.6442L30.1852 37.8652C30.4142 37.5878 30.6431 37.3074 30.8815 37.0362C31.1198 36.7651 31.3142 36.5532 31.5369 36.3164L32.1955 35.5965C32.4401 35.3285 32.6816 35.0574 32.9325 34.7988C33.1833 34.5401 33.3935 34.3313 33.6255 34.1039L34.3594 33.3747C34.5977 33.1347 34.8361 32.8947 35.0838 32.661C35.3316 32.4273 35.6044 32.1811 35.8678 31.9474L36.6268 31.2587C36.8588 31.0468 37.0878 30.8349 37.3261 30.6355C37.5644 30.436 37.9 30.1556 38.1917 29.9187L38.9945 29.2612C39.2171 29.0742 39.4367 28.8904 39.6625 28.7127C39.9761 28.4603 40.3116 28.2204 40.6409 27.9773L41.4375 27.3821C41.6539 27.2169 41.8703 27.0705 42.0929 26.896C42.4598 26.6342 42.8362 26.3849 43.2125 26.1325L43.9808 25.6152C44.191 25.4687 44.3979 25.3285 44.6081 25.1883C45.4517 24.646 46.3266 24.11 47.211 23.5959C51.7591 20.9589 56.6127 18.8807 61.6652 17.407C63.343 16.9177 65.0616 16.4908 66.7676 16.1387C75.4929 14.377 84.4857 14.377 93.211 16.1387C107.672 19.1195 120.682 26.8982 130.106 38.1974C139.53 49.4966 144.806 63.6444 145.069 78.3172L145.094 79.4951C145.097 94.3725 139.94 108.796 130.492 120.337C121.044 131.879 107.883 139.832 93.2235 142.858C84.4998 144.625 75.507 144.625 66.7833 142.858V142.848ZM87.1458 155.398L85.3206 153.129C85.2516 153.129 85.145 153.151 85.007 153.16L83.1599 153.282L83.3167 155.647L81.7988 155.747L81.2657 147.623L84.6275 147.404C85.2638 147.35 85.9046 147.428 86.5092 147.632C87.0174 147.811 87.4606 148.137 87.7824 148.567C88.1009 149.012 88.2818 149.539 88.303 150.084C88.3548 150.643 88.2345 151.204 87.9581 151.692C87.6706 152.166 87.2421 152.54 86.7318 152.761L88.7891 155.307L87.1458 155.398ZM91.5363 154.865L90.0435 146.862L91.5395 146.585L92.7939 153.331L97.0339 152.568L97.2659 153.815L91.5363 154.865ZM106.21 149.121C106.041 149.824 105.67 150.462 105.144 150.96C104.56 151.513 103.853 151.921 103.08 152.15L99.6713 153.235L97.1624 145.482L100.571 144.397C101.334 144.139 102.147 144.062 102.945 144.173C103.666 144.275 104.341 144.582 104.89 145.058C105.438 145.566 105.845 146.205 106.074 146.914C106.303 147.623 106.346 148.379 106.197 149.109L106.21 149.121ZM118.619 145.03C118.222 145.518 117.729 145.922 117.171 146.217C116.491 146.6 115.725 146.805 114.944 146.812C114.207 146.819 113.482 146.624 112.849 146.248C112.197 145.859 111.664 145.299 111.309 144.631C110.934 143.974 110.748 143.227 110.773 142.471C110.799 141.737 111.027 141.024 111.432 140.408C111.827 139.829 112.343 139.341 112.945 138.977C113.547 138.612 114.22 138.38 114.919 138.296C115.501 138.235 116.089 138.309 116.637 138.514L116.22 139.788C115.832 139.651 115.418 139.598 115.007 139.634C114.596 139.67 114.198 139.794 113.84 139.997C113.374 140.241 112.979 140.599 112.692 141.038C112.422 141.452 112.277 141.934 112.272 142.428C112.265 142.944 112.397 143.453 112.655 143.902C112.897 144.358 113.256 144.743 113.696 145.017C114.118 145.276 114.605 145.413 115.101 145.413C115.628 145.411 116.145 145.273 116.603 145.014C116.969 144.823 117.289 144.554 117.54 144.228C117.791 143.901 117.968 143.524 118.058 143.123L119.369 143.472C119.252 144.044 119.001 144.581 118.635 145.039L118.619 145.03ZM126.827 139.243C126.476 139.941 125.963 140.546 125.332 141.009C124.7 141.473 123.966 141.78 123.192 141.907C122.458 142.016 121.708 141.92 121.025 141.63C120.332 141.326 119.73 140.848 119.28 140.242C118.83 139.637 118.548 138.925 118.46 138.177C118.387 137.444 118.517 136.705 118.836 136.039C119.186 135.342 119.698 134.737 120.329 134.274C120.961 133.811 121.693 133.503 122.467 133.375C123.2 133.266 123.949 133.36 124.631 133.646C125.325 133.954 125.927 134.435 126.378 135.043C126.829 135.651 127.113 136.365 127.203 137.115C127.275 137.845 127.145 138.581 126.827 139.243ZM135.372 132.104L128.26 131.337L132.158 135.245L131.085 136.301L125.328 130.511L126.218 129.636L133.331 130.402L129.43 126.482L130.505 125.429L136.263 131.219L135.372 132.104ZM141.88 124.082C141.683 124.633 141.4 125.149 141.042 125.612C140.573 126.24 139.952 126.74 139.236 127.065C138.562 127.37 137.817 127.488 137.082 127.404C136.328 127.302 135.613 127.008 135.008 126.549C134.404 126.09 133.929 125.483 133.632 124.787C133.357 124.102 133.277 123.354 133.403 122.627C133.532 121.852 133.856 121.123 134.344 120.505C134.727 119.995 135.205 119.562 135.752 119.23C136.253 118.931 136.818 118.755 137.401 118.716L137.561 120.038C137.144 120.086 136.74 120.218 136.376 120.427C136.012 120.637 135.695 120.917 135.445 121.253C135.112 121.67 134.89 122.163 134.798 122.686C134.716 123.176 134.774 123.678 134.968 124.135C135.169 124.612 135.493 125.027 135.909 125.338C136.314 125.657 136.798 125.861 137.31 125.93C137.807 125.994 138.312 125.921 138.769 125.718C139.255 125.502 139.678 125.165 139.995 124.74C140.363 124.283 140.601 123.736 140.685 123.157L138.659 121.617L139.534 120.48L142.124 122.453C142.145 123.006 142.062 123.559 141.88 124.082ZM147.384 115.634L144.47 115.887C144.442 115.952 144.392 116.046 144.323 116.167L143.401 117.756L145.471 118.941L144.712 120.249L137.612 116.198L139.289 113.294C139.594 112.739 140.013 112.254 140.519 111.87C140.945 111.548 141.458 111.358 141.993 111.324C142.544 111.307 143.089 111.448 143.561 111.733C144.056 111.999 144.459 112.409 144.715 112.908C144.952 113.408 145.029 113.97 144.934 114.516L148.205 114.226L147.384 115.634ZM149.403 111.661L141.852 108.514L144.163 103.032L145.339 103.525L143.614 107.61L145.58 108.426L147.108 104.802L148.265 105.285L146.734 108.909L148.817 109.776L150.604 105.541L151.78 106.03L149.403 111.661ZM153.527 100.894C153.356 101.487 153.098 102.05 152.762 102.568C152.486 103.016 152.12 103.404 151.686 103.705L150.698 102.876C151.074 102.6 151.401 102.263 151.664 101.879C151.952 101.472 152.171 101.022 152.313 100.545C152.475 100.102 152.509 99.6229 152.411 99.1618C152.374 99.0088 152.296 98.8685 152.185 98.7555C152.075 98.6426 151.936 98.5612 151.783 98.5198C151.679 98.4869 151.569 98.4771 151.461 98.4911C151.352 98.5051 151.248 98.5425 151.156 98.6008C150.95 98.7333 150.773 98.9074 150.639 99.1119C150.485 99.3332 150.294 99.6417 150.065 100.047C149.81 100.505 149.528 100.948 149.218 101.371C148.973 101.697 148.649 101.957 148.277 102.128C147.85 102.307 147.37 102.323 146.932 102.172C146.508 102.056 146.13 101.815 145.847 101.48C145.545 101.107 145.358 100.654 145.307 100.178C145.243 99.5615 145.307 98.9388 145.496 98.3484C145.635 97.874 145.833 97.4186 146.085 96.9929C146.313 96.598 146.605 96.2441 146.951 95.9458L147.954 96.728C147.657 97.005 147.396 97.3193 147.18 97.6628C146.975 97.9863 146.817 98.3367 146.709 98.7037C146.548 99.1398 146.52 99.6134 146.628 100.065C146.673 100.219 146.756 100.359 146.871 100.472C146.986 100.584 147.128 100.665 147.283 100.707C147.387 100.741 147.498 100.751 147.606 100.736C147.715 100.722 147.819 100.683 147.91 100.623C148.115 100.489 148.29 100.315 148.425 100.112C148.579 99.8899 148.771 99.5783 148.999 99.1773C149.244 98.7209 149.524 98.2834 149.836 97.8685C150.083 97.5425 150.406 97.2806 150.777 97.105C151.199 96.925 151.673 96.9083 152.106 97.0583C152.528 97.1736 152.904 97.4138 153.185 97.747C153.486 98.1231 153.671 98.5776 153.718 99.0558C153.777 99.6763 153.706 100.302 153.511 100.894H153.527ZM155.437 92.6021C155.336 93.2099 155.144 93.7992 154.866 94.3503C154.641 94.8251 154.321 95.2493 153.925 95.5968L152.847 94.8832C153.191 94.5666 153.477 94.1934 153.693 93.78C153.937 93.3458 154.104 92.8737 154.189 92.3839C154.293 91.9224 154.266 91.4411 154.11 90.9941C154.057 90.8469 153.966 90.7165 153.845 90.6162C153.724 90.516 153.579 90.4496 153.424 90.4238C153.314 90.4012 153.202 90.4029 153.093 90.4288C152.985 90.4546 152.883 90.504 152.796 90.5734C152.605 90.728 152.448 90.92 152.335 91.1374C152.21 91.3774 152.053 91.7046 151.871 92.1222C151.671 92.6072 151.44 93.0787 151.178 93.5338C150.969 93.8845 150.676 94.1788 150.325 94.3908C149.92 94.6164 149.445 94.6852 148.992 94.584C148.559 94.5138 148.157 94.3163 147.838 94.0168C147.493 93.6766 147.255 93.2433 147.155 92.7703C147.021 92.1663 147.015 91.5415 147.136 90.9349C147.218 90.4478 147.364 89.9733 147.569 89.5232C147.748 89.1039 147.998 88.7182 148.309 88.3827L149.394 89.0527C149.128 89.3615 148.906 89.7042 148.732 90.0717C148.565 90.4154 148.447 90.7803 148.381 91.1561C148.266 91.6192 148.295 92.1062 148.465 92.5522C148.528 92.7 148.627 92.8295 148.754 92.9282C148.88 93.027 149.031 93.0917 149.19 93.1162C149.296 93.1366 149.406 93.1335 149.511 93.1071C149.616 93.0808 149.714 93.0317 149.798 92.9635C149.985 92.8068 150.138 92.6151 150.25 92.3995C150.379 92.1596 150.532 91.8324 150.714 91.4148C150.91 90.9354 151.138 90.47 151.398 90.0218C151.609 89.6693 151.903 89.3722 152.254 89.1555C152.652 88.9297 153.121 88.8607 153.568 88.9623C154.001 89.029 154.402 89.2259 154.719 89.5263C155.061 89.868 155.296 90.301 155.396 90.7728C155.531 91.3744 155.539 91.9971 155.421 92.6021H155.437Z" fill="#1A428A"/>
<path d="M18.5105 41.7578C18.9339 42.0533 19.4281 42.2328 19.9435 42.2783C20.4372 42.3208 20.9331 42.2269 21.3765 42.0071C21.8304 41.7672 22.2179 41.4199 22.505 40.9961C22.7921 40.5722 22.9699 40.0847 23.0228 39.5765C23.0678 39.0867 22.9732 38.5943 22.75 38.1555C22.5189 37.6952 22.1695 37.3039 21.7371 37.0211C21.3132 36.7266 20.8192 36.5472 20.3041 36.5007C19.8114 36.458 19.3164 36.5518 18.8742 36.7718C18.4148 37.0044 18.0237 37.3512 17.7391 37.7784C17.4424 38.1972 17.2618 38.6862 17.2154 39.1963C17.1704 39.686 17.2649 40.1784 17.4882 40.6173C17.721 41.081 18.0738 41.4746 18.5105 41.7578Z" fill="#1A428A"/>
<path d="M152.128 68.1556C152.251 68.265 152.399 68.3426 152.559 68.3818C152.72 68.4209 152.887 68.4203 153.047 68.38C153.212 68.3613 153.37 68.3035 153.507 68.2112C153.645 68.119 153.758 67.9952 153.837 67.8502C153.995 67.4866 154.028 67.0814 153.931 66.6972L153.571 64.7059L151.288 65.1297L151.648 67.121C151.693 67.5078 151.861 67.8703 152.128 68.1556Z" fill="#1A428A"/>
<path d="M26.453 30.0964C26.4644 29.9326 26.4352 29.7686 26.368 29.6186C26.3008 29.4687 26.1975 29.3374 26.0673 29.2363C25.9511 29.1186 25.8082 29.0302 25.6505 28.9787C25.4928 28.9272 25.325 28.914 25.1611 28.9403C24.7778 29.0382 24.4368 29.2569 24.189 29.5635L22.8281 31.0687L24.559 32.6268L25.92 31.1185C26.2052 30.8448 26.3924 30.4858 26.453 30.0964Z" fill="#1A428A"/>
<path d="M123.964 134.98C123.512 134.776 123.013 134.701 122.521 134.765C122.012 134.838 121.53 135.035 121.116 135.338C120.702 135.642 120.371 136.042 120.151 136.504C119.945 136.951 119.869 137.446 119.931 137.934C120.003 138.443 120.201 138.925 120.508 139.339C120.814 139.752 121.22 140.083 121.687 140.302C122.138 140.506 122.638 140.581 123.129 140.517C123.638 140.444 124.121 140.247 124.535 139.944C124.948 139.64 125.28 139.24 125.5 138.778C125.705 138.331 125.781 137.836 125.72 137.348C125.648 136.84 125.449 136.357 125.143 135.943C124.836 135.53 124.431 135.199 123.964 134.98Z" fill="#1A428A"/>
<path d="M19.1651 120.705L21.3225 117.477L17.4844 118.14L19.1651 120.705Z" fill="#1A428A"/>
<path d="M89.7299 8.58492C89.9087 8.44895 90.058 8.27847 90.1689 8.08372C90.2798 7.88897 90.3499 7.67396 90.3751 7.45161C90.4003 7.22925 90.38 7.00413 90.3154 6.78976C90.2509 6.57539 90.1435 6.37619 89.9995 6.20411C89.5958 5.85032 89.0823 5.64466 88.5446 5.62137L86.776 5.42505L86.4154 8.64101L88.1839 8.83422C88.7128 8.93194 89.2593 8.8438 89.7299 8.58492Z" fill="#1A428A"/>
</svg>
