<svg width="489" height="276" viewBox="0 0 489 276" fill="none" xmlns="http://www.w3.org/2000/svg">
<g filter="url(#filter0_d_112_4)">
<path d="M121.793 237.68V203.408H30V171.008L96.3267 30.32H135.892L69.5658 171.008H121.793V117.008H156.898V171.008H176.322V203.408H156.898V237.68H121.793Z" fill="white"/>
<path d="M272.472 242C257.797 242 244.848 238.88 233.626 232.64C222.404 226.304 213.627 217.52 207.297 206.288C201.062 195.056 197.945 182.096 197.945 167.408V100.592C197.945 85.904 201.062 72.944 207.297 61.712C213.627 50.48 222.404 41.744 233.626 35.504C244.848 29.168 257.797 26 272.472 26C287.148 26 300.049 29.168 311.175 35.504C322.397 41.744 331.174 50.48 337.504 61.712C343.835 72.944 347 85.904 347 100.592V167.408C347 182.096 343.835 195.056 337.504 206.288C331.174 217.52 322.397 226.304 311.175 232.64C300.049 238.88 287.148 242 272.472 242ZM272.472 209.024C279.762 209.024 286.38 207.296 292.327 203.84C298.274 200.288 302.974 195.584 306.427 189.728C309.88 183.776 311.607 177.152 311.607 169.856V98C311.607 90.608 309.88 83.984 306.427 78.128C302.974 72.176 298.274 67.472 292.327 64.016C286.38 60.464 279.762 58.688 272.472 58.688C265.183 58.688 258.564 60.464 252.618 64.016C246.671 67.472 241.971 72.176 238.518 78.128C235.065 83.984 233.338 90.608 233.338 98V169.856C233.338 177.152 235.065 183.776 238.518 189.728C241.971 195.584 246.671 200.288 252.618 203.84C258.564 207.296 265.183 209.024 272.472 209.024Z" fill="white"/>
</g>
<g filter="url(#filter1_d_112_4)">
<path d="M380.825 240.26L371.498 230.98L446.175 156.74L455.502 166.078L380.825 240.26ZM438.013 242C434.166 242 430.649 241.072 427.462 239.216C424.314 237.321 421.788 234.808 419.883 231.676C417.979 228.505 417.027 224.987 417.027 221.12C417.027 217.331 417.999 213.851 419.942 210.68C421.885 207.509 424.45 204.977 427.637 203.082C430.824 201.187 434.283 200.24 438.013 200.24C441.861 200.24 445.378 201.187 448.565 203.082C451.752 204.938 454.278 207.451 456.143 210.622C458.048 213.754 459 217.253 459 221.12C459 224.987 458.048 228.505 456.143 231.676C454.278 234.808 451.752 237.321 448.565 239.216C445.378 241.072 441.861 242 438.013 242ZM438.013 230.052C439.607 230.052 441.084 229.646 442.444 228.834C443.843 228.022 444.951 226.939 445.767 225.586C446.583 224.233 446.991 222.744 446.991 221.12C446.991 219.496 446.583 218.007 445.767 216.654C444.951 215.301 443.843 214.218 442.444 213.406C441.084 212.594 439.607 212.188 438.013 212.188C436.381 212.188 434.885 212.594 433.525 213.406C432.164 214.218 431.057 215.301 430.202 216.654C429.386 218.007 428.978 219.496 428.978 221.12C428.978 222.744 429.386 224.233 430.202 225.586C431.057 226.939 432.164 228.022 433.525 228.834C434.885 229.646 436.381 230.052 438.013 230.052ZM388.987 196.76C385.139 196.76 381.622 195.832 378.435 193.976C375.248 192.081 372.703 189.568 370.798 186.436C368.933 183.265 368 179.747 368 175.88C368 172.091 368.972 168.611 370.915 165.44C372.858 162.269 375.423 159.737 378.61 157.842C381.797 155.947 385.256 155 388.987 155C392.834 155 396.332 155.947 399.48 157.842C402.667 159.698 405.212 162.211 407.117 165.382C409.021 168.514 409.973 172.013 409.973 175.88C409.973 179.747 409.021 183.265 407.117 186.436C405.212 189.568 402.667 192.081 399.48 193.976C396.332 195.832 392.834 196.76 388.987 196.76ZM388.987 184.812C390.619 184.812 392.115 184.406 393.475 183.594C394.836 182.782 395.924 181.699 396.74 180.346C397.556 178.993 397.964 177.504 397.964 175.88C397.964 174.256 397.556 172.767 396.74 171.414C395.924 170.061 394.836 168.978 393.475 168.166C392.115 167.354 390.619 166.948 388.987 166.948C387.354 166.948 385.858 167.354 384.498 168.166C383.138 168.978 382.049 170.061 381.233 171.414C380.417 172.767 380.009 174.256 380.009 175.88C380.009 177.504 380.417 178.993 381.233 180.346C382.049 181.699 383.138 182.782 384.498 183.594C385.858 184.406 387.354 184.812 388.987 184.812Z" fill="white"/>
</g>
<defs>
<filter id="filter0_d_112_4" x="0" y="0" width="377" height="276" filterUnits="userSpaceOnUse" color-interpolation-filters="sRGB">
<feFlood flood-opacity="0" result="BackgroundImageFix"/>
<feColorMatrix in="SourceAlpha" type="matrix" values="0 0 0 0 0 0 0 0 0 0 0 0 0 0 0 0 0 0 127 0" result="hardAlpha"/>
<feOffset dy="4"/>
<feGaussianBlur stdDeviation="15"/>
<feComposite in2="hardAlpha" operator="out"/>
<feColorMatrix type="matrix" values="0 0 0 0 0.0509804 0 0 0 0 0.0509804 0 0 0 0 0.0745098 0 0 0 0.6 0"/>
<feBlend mode="normal" in2="BackgroundImageFix" result="effect1_dropShadow_112_4"/>
<feBlend mode="normal" in="SourceGraphic" in2="effect1_dropShadow_112_4" result="shape"/>
</filter>
<filter id="filter1_d_112_4" x="338" y="129" width="151" height="147" filterUnits="userSpaceOnUse" color-interpolation-filters="sRGB">
<feFlood flood-opacity="0" result="BackgroundImageFix"/>
<feColorMatrix in="SourceAlpha" type="matrix" values="0 0 0 0 0 0 0 0 0 0 0 0 0 0 0 0 0 0 127 0" result="hardAlpha"/>
<feOffset dy="4"/>
<feGaussianBlur stdDeviation="15"/>
<feComposite in2="hardAlpha" operator="out"/>
<feColorMatrix type="matrix" values="0 0 0 0 0.0509804 0 0 0 0 0.0509804 0 0 0 0 0.0745098 0 0 0 0.6 0"/>
<feBlend mode="normal" in2="BackgroundImageFix" result="effect1_dropShadow_112_4"/>
<feBlend mode="normal" in="SourceGraphic" in2="effect1_dropShadow_112_4" result="shape"/>
</filter>
</defs>
</svg>
