<svg width="106" height="27" viewBox="0 0 106 27" fill="none" xmlns="http://www.w3.org/2000/svg">
<g clip-path="url(#clip0_20_259)">
<path d="M37.5335 13.1192C37.5335 22.3243 32.0538 26.1195 18.9656 26.1195C5.87743 26.1195 0.398438 22.3243 0.398438 13.1192V1.38924H13.1961V14.0528C13.1961 16.6656 15.5076 18.6157 18.9663 18.6157C22.4251 18.6157 24.7366 16.6656 24.7366 14.0528V1.38924H37.5342V13.1192H37.5335ZM105.609 14.5139V21.6231H100.694V25.8156H89.4994V21.6231H71.0228V14.4531L84.2817 1.38924H100.695V14.5139H105.61H105.609ZM89.4994 7.52623L82.4306 14.5139H89.4994V7.52623ZM70.9236 9.04528C70.9236 3.24213 65.7966 0.538574 54.9956 0.538574C43.3452 0.538574 38.4302 3.63745 38.4302 11.0504H49.2611C49.2611 8.49842 51.0508 7.58699 54.6009 7.58699C58.151 7.58699 59.1518 8.19461 59.1518 9.13607C59.1518 10.382 58.7578 10.382 50.0499 12.4172C40.4019 14.6954 37.3986 19.1919 37.3986 23.5367V25.8149H70.1348V18.9188H50.9908C52.1437 17.8251 55.4204 17.5212 62.6712 16.1237C67.4949 15.2123 70.9236 13.5417 70.9236 9.04528V9.04528Z" fill="white"/>
</g>
<defs>
<clipPath id="clip0_20_259">
<rect width="105.212" height="25.5809" fill="white" transform="translate(0.398438 0.538574)"/>
</clipPath>
</defs>
</svg>
